<?xml version="1.0" encoding="UTF-8"?>
<svg id="Layer_1" data-name="Layer 1" xmlns="http://www.w3.org/2000/svg" xmlns:xlink="http://www.w3.org/1999/xlink" viewBox="0 0 1516.69 1084.73">
  <defs>
    <style>
      .cls-1 {
        fill: #1b1464;
      }

      .cls-2, .cls-3, .cls-4 {
        fill: #e6e6e6;
      }

      .cls-5 {
        fill: url(#linear-gradient);
      }

      .cls-3, .cls-6 {
        stroke-width: 2px;
      }

      .cls-3, .cls-6, .cls-4 {
        stroke: #000;
        stroke-miterlimit: 10;
      }

      .cls-7 {
        fill: #c1272d;
      }

      .cls-6 {
        fill: none;
      }

      .cls-8 {
        fill: #b3b3b3;
      }

      .cls-9 {
        fill: #1a1a1a;
      }
    </style>
    <linearGradient id="linear-gradient" x1="974.33" y1="396.76" x2="516.99" y2="966" gradientUnits="userSpaceOnUse">
      <stop offset="0" stop-color="#ed453e"/>
      <stop offset="1" stop-color="#c1272d"/>
    </linearGradient>
  </defs>
  <g>
    <circle class="cls-5" cx="751.39" cy="674.25" r="410.48"/>
    <rect class="cls-2" x="578.09" y="452.88" width="153.06" height="282.09" rx="60.5" ry="60.5"/>
    <rect class="cls-2" x="789.34" y="452.88" width="153.06" height="282.09" rx="60.5" ry="60.5"/>
    <rect class="cls-9" x="843.73" y="523.72" width="45.54" height="123.97" rx="18" ry="18"/>
    <g>
      <rect class="cls-9" x="632.48" y="527.51" width="45.54" height="123.97" rx="18" ry="18"/>
      <path class="cls-2" d="M681.82,593.25h-27.2s3.68-18.94,27.2-18.94v18.94Z"/>
    </g>
    <path class="cls-2" d="M893.07,594.55h-23.4s3.16-18.94,23.4-18.94v18.94Z"/>
    <path class="cls-7" d="M580.23,491.66l152.47,59.71v-42.98s-5.23-41.9-51.01-59.53c-45.77-17.63-95.69,13.42-101.46,42.8Z"/>
    <path class="cls-7" d="M939.7,491.66l-152,59.71v-42.98s5.22-41.9,50.85-59.53c45.63-17.63,95.39,13.42,101.15,42.8Z"/>
    <path class="cls-1" d="M574.7,680.97s96.42-48.35,163,0c0,0-10.31,49.56-70.12,56.91-59.81,7.35-89.46-34.98-92.88-56.91Z"/>
    <path class="cls-1" d="M785.7,680.97s95.83-48.35,162,0c0,0-10.25,49.56-69.69,56.91-59.44,7.35-88.91-34.98-92.31-56.91Z"/>
    <polygon class="cls-8" points="1149.61 574.31 1318.82 506.54 1318.82 601.54 1154.13 594.55 1149.61 574.31"/>
    <polygon class="cls-8" points="352.63 580.64 183.42 512.87 183.42 607.86 348.11 600.88 352.63 580.64"/>
    <path class="cls-4" d="M676.48,888.03l149.82-35.67-3.08-32.41s-136.62-68.53-141.68-.22"/>
    <line class="cls-3" x1="679.29" y1="846.28" x2="824.58" y2="834.23"/>
    <line class="cls-6" x1="701.67" y1="792.13" x2="701.67" y2="882.03"/>
    <line class="cls-6" x1="728.24" y1="789.6" x2="728.24" y2="875.38"/>
    <line class="cls-6" x1="758.6" y1="795.68" x2="758.6" y2="869.05"/>
    <line class="cls-6" x1="788.07" y1="804.54" x2="788.07" y2="861.46"/>
    <circle class="cls-8" cx="167.61" cy="448.45" r="65.15"/>
    <ellipse class="cls-8" cx="116.38" cy="533.83" rx="116.38" ry="84.75"/>
    <ellipse class="cls-8" cx="154.33" cy="659.7" rx="80.96" ry="65.15"/>
    <circle class="cls-8" cx="1349.09" cy="468.69" r="65.15"/>
    <ellipse class="cls-8" cx="1400.32" cy="554.07" rx="116.38" ry="84.75"/>
    <ellipse class="cls-8" cx="1362.37" cy="679.94" rx="80.96" ry="65.15"/>
  </g>
  <path d="M730.35,215.59c0-11.54,9.51-21.73,21.39-21.73s21.39,10.18,21.39,21.73-9.51,21.39-21.39,21.39-21.39-9.85-21.39-21.39ZM770.41,20.71c0,12.56-3.73,44.82-8.15,92.35l-4.41,47.19h-12.22l-4.41-47.19c-4.41-47.53-8.15-79.78-8.15-92.35,0-14.6,7.13-20.71,18.67-20.71s18.67,6.11,18.67,20.71Z"/>
</svg>