<?xml version="1.0" encoding="UTF-8"?>
<svg id="Layer_1" data-name="Layer 1" xmlns="http://www.w3.org/2000/svg" viewBox="0 0 820.96 936.56">
  <defs>
    <style>
      .cls-1 {
        stroke-width: 12px;
      }

      .cls-1, .cls-2 {
        fill: none;
      }

      .cls-1, .cls-2, .cls-3 {
        stroke: #000;
        stroke-linecap: round;
        stroke-linejoin: round;
      }

      .cls-2, .cls-3 {
        stroke-width: 7px;
      }

      .cls-4 {
        fill: #ff7bac;
      }

      .cls-5, .cls-3 {
        fill: #e6e6e6;
      }

      .cls-6 {
        fill: #f0f;
      }

      .cls-7 {
        fill: #1a1a1a;
      }
    </style>
  </defs>
  <path class="cls-4" d="M820.96,392.74C820.96,175.84,637.18,0,410.48,0S0,175.84,0,392.74c0,117.32,53.77,222.62,139.01,294.59l78.54,237.15h436.11l47.07-254.03c74.29-71.07,120.23-169.26,120.23-277.72Z"/>
  <rect class="cls-5" x="230.58" y="237.13" width="153.06" height="282.09" rx="60.5" ry="60.5"/>
  <rect class="cls-5" x="441.83" y="202.13" width="153.06" height="282.09" rx="60.5" ry="60.5"/>
  <g>
    <rect class="cls-7" x="284.98" y="311.76" width="45.54" height="123.97" rx="18" ry="18"/>
    <path class="cls-5" d="M334.31,377.51h-27.2s3.68-18.94,27.2-18.94v18.94Z"/>
  </g>
  <g>
    <rect class="cls-7" x="493.98" y="280.76" width="45.54" height="123.97" rx="18" ry="18"/>
    <path class="cls-5" d="M543.31,346.51h-27.2s3.68-18.94,27.2-18.94v18.94Z"/>
  </g>
  <path class="cls-1" d="M194.24,233.16s104.74-26.17,180.75,15.52"/>
  <path class="cls-1" d="M642.52,202s-63.34-87.31-148.17-104.15"/>
  <path class="cls-6" d="M231.58,319.24h153.06s14.22-87.47-87.47-87.47c0,0-74.49,5.75-65.59,87.47Z"/>
  <path class="cls-6" d="M383.59,440.24h-153.06s-14.22,87.47,87.47,87.47c0,0,74.49-5.75,65.59-87.47Z"/>
  <path class="cls-6" d="M594.59,405.24h-153.06s-14.22,87.47,87.47,87.47c0,0,74.49-5.75,65.59-87.47Z"/>
  <path class="cls-6" d="M441.58,280.74h153.06s14.22-87.47-87.47-87.47c0,0-74.49,5.75-65.59,87.47Z"/>
  <polygon class="cls-3" points="435.87 850.46 431.3 830.04 400.09 815.39 403.98 856.74 441.83 862.52 435.87 850.46"/>
  <path class="cls-3" d="M424.17,854.26s61.81-22.52,85.81-8.52,24,47-28,58l-52,11"/>
  <path class="cls-3" d="M328.31,810.15s79.67-178.14,76.17-227.27,78.5-52.14,58.5,26.86-28.13,111.32-28.13,111.32c0,0,78.9,42.5,77.52,89.09s-52.65-5.86-77.52-23.64,73.13,34.41,53.13,81.82-38.09,41.59-38.04,0c.05-41.59-59.95-54.59-59.95-54.59,0,0,47.14,52.48,42.57,77.74s-13.57,47.26-43.57,40.26-106.34-7.18-60.67-121.59Z"/>
  <line class="cls-3" x1="344.98" y1="815.74" x2="377.32" y2="744.76"/>
  <path class="cls-2" d="M455.47,651.68s24.51-1.94,25.51-24.94,3,111,78,50,84-88,83-131"/>
</svg>