<?xml version="1.0" encoding="UTF-8"?>
<svg id="Layer_1" data-name="Layer 1" xmlns="http://www.w3.org/2000/svg" viewBox="0 0 785.72 828.2">
  <defs>
    <style>
      .cls-1 {
        fill: #7ac943;
      }

      .cls-1, .cls-2, .cls-3 {
        stroke: #000;
        stroke-miterlimit: 10;
        stroke-width: 7px;
      }

      .cls-2 {
        fill: #e6e6e6;
      }
    </style>
  </defs>
  <path class="cls-1" d="M251.85,41.45c-40.67-6.8-77.01,24.74-104.4,55.57C63.47,191.56-4.04,311.3,4.18,437.49c8.81,135.37,104.54,252.6,219.56,324.51,32.76,20.48,67.57,38.19,104.77,48.64,54.7,15.37,112.45,14.57,169.26,13.63,27.96-.46,56.35-1,83.1-9.16,54.26-16.55,94.37-61.89,127.94-107.62,19.52-26.6,38.01-54.31,50.37-84.9,14.67-36.32,20.28-75.71,22.25-114.84,4.61-91.62-10.6-184.99-50.27-267.7s-104.55-154.26-186.23-196.02c-110.46-56.47-249.11-53.75-357.27,7.01"/>
  <path class="cls-1" d="M148.18,332.91c-3.29-16.39,2.83-33.23,10.79-47.93,32.06-59.18,97.62-98.66,164.93-99.32,17.57-.17,36.76,2.9,48.58,15.9"/>
  <path class="cls-1" d="M463.2,206.24c28.62-10.56,58.66-17.28,89.05-19.91,6.87-.6,14.01-.95,20.44,1.53,6.77,2.6,12.01,8.04,16.77,13.52,30.51,35.04,51.37,78.4,59.69,124.11"/>
  <path class="cls-2" d="M302.42,441.76c29.31,8.39,61.81-4.08,83.25-25.76,6.65-6.72,12.56-14.49,15.41-23.5,21.04-66.42-67.92-109.65-121.16-89.71-25.71,9.63-33.85,37.9-36.78,62.8-4.58,38.96,21.55,65.38,59.28,76.17Z"/>
  <path class="cls-2" d="M506.97,351.7c-.23,19.96,3.82,42.54,20.42,53.63,14.59,9.75,35.19,6.91,49.26-3.58s22.37-27.19,26.66-44.2c9.77-38.74-1.27-83.97-32.96-108.31-6.47-4.97-14-9.12-22.15-9.45-32.58-1.33-40.98,89.81-41.23,111.91Z"/>
  <path class="cls-1" d="M468.22,533.54c31.68-23.21,64.83-47.07,103.46-54.13,4.7-.86,9.76-1.41,14.07.66,3.91,1.88,6.55,5.62,8.92,9.26,16.91,25.95,29.48,54.71,37.04,84.75,2.52-20.08,14.23-38.82,31.19-49.87,6.26-4.08,13.9-7.23,21.11-5.26,7.22,1.97,12.54,11.06,8.41,17.29,6.18,8.15,19.57.87,24.33-8.18s7.53-20.71,16.96-24.66c2.65,6.76,5.96,13.27,9.86,19.4,2.34-1.73,3.28-5.11,2.18-7.81"/>
  <circle class="cls-3" cx="323.92" cy="370.75" r="16.5"/>
  <circle class="cls-3" cx="555.92" cy="332.75" r="16.5"/>
</svg>